<svg xmlns="http://www.w3.org/2000/svg" xml:space="preserve" width="2000" height="200" data-id="lg_MONeal3O3SiRow1YzM" data-version="1"><g data-padding="20"><g transform="translate(10 3.497)scale(.96503)"><path fill="#222" stroke="#ff851b" stroke-width="5.33" d="M791.986 42.708a49.692 49.692 0 1 0 0 99.384 49.692 49.692 0 1 0 0-99.384Z" paint-order="stroke"/><path fill="#ff851b" d="M930.326 162.54h-37.18q-3.43 0-3.43-3.51 0-4.43.17-8.82.16-4.38.25-8.73.16-9.69.29-19.34t.13-19.26q0-9.28-.09-18.55-.08-9.27-.25-18.55-.08-4.18-.25-8.44t-.17-8.44q0-3.51 3.43-3.51h31.33q14.04 0 26.45 4.01 12.4 4.02 21.59 12.75 9.2 8.73 13.54 22.93 3.09 10.2 3.09 20.72 0 17.13-7.73 29.87-7.73 12.75-21.05 19.81-13.33 7.06-30.12 7.06m-19.14-20.14h15.46q18.63 0 29.79-9.82 11.15-9.82 11.15-28.95 0-10.86-4.59-19.51-4.6-8.65-12.87-13.66t-19.39-5.01h-19.46q.08 8.85.12 17.79t.04 17.88q0 20.56-.25 41.28m114.79 21.73q-10.87 0-18.22-5.18t-11.07-13.74q-3.72-8.57-3.72-18.59v-1.34q.17-10.53 4.39-19.8 4.22-9.28 12.24-15t19.38-5.72q7.02 0 13.08 2.63t11.32 7.14q.59.59 1 .59 1.01 0 .96-2.09-.04-2.09.59-4.18t3.3-2.09h11.78q3.43 0 3.43 3.43 0 3.59-.05 7.18-.04 3.6-.04 7.19 0 9.19.13 18.47.12 9.27.21 18.46.08 4.35.21 8.73.12 4.39.12 8.82 0 3.51-3.42 3.51h-13.12q-2.26 0-2.93-1.47-.67-1.46-.58-3.46.08-2.01 0-3.6 0-.25-.09-.83-.08-.59-.5-.59-.33 0-.62.25-.3.25-.55.42-5.84 4.93-12.61 7.9-6.77 2.96-14.62 2.96m8.52-17.79q5.93 0 10.99-2.47 5.05-2.46 7.89-7.81.17-.33.79-1.71.63-1.38.63-1.72 0-2.92-.04-5.85-.04-2.92-.04-5.76 0-1.34.08-2.97t-.08-2.88q-.09-.58-.63-1.75t-.79-1.67q-2.93-5.27-8.27-7.86-5.35-2.59-11.2-2.59-6.18 0-10.86 3.09t-7.31 8.15q-2.64 5.05-2.64 11.07t2.76 11.2 7.65 8.35q4.88 3.18 11.07 3.18m85.21 17.96q-.33 0-.58-.33-6.1-10.95-12.08-22.06-5.97-11.11-11.9-22.14-3.76-6.94-7.61-13.92-3.84-6.97-7.51-13.99-.34-.67-.63-1.38t-.29-1.38q0-1.58 1.42-1.96t2.5-.38h15.38q2 0 3.09 1.92 1.42 2.51 2.67 5.31 1.26 2.8 2.51 5.47 3.17 6.6 6.31 13.2 3.13 6.61 6.47 13.12.17.25.38.63.21.37.54.37.42 0 .63-.37.21-.38.29-.63 3.01-6.43 5.77-13.07 2.75-6.65 5.59-13.16 1.17-2.68 2.26-5.43 1.09-2.76 2.42-5.27 1.09-2.09 3.18-2.09h13.95q1.17 0 2.55.38t1.38 1.96q0 .67-.25 1.34t-.59 1.34q-4.09 8.18-8.39 16.33-4.31 8.15-8.49 16.34-5.09 9.85-10.11 19.76-5.01 9.9-10.27 19.76-.25.33-.59.33m42.44-106.03q0-4.59 3.42-7.89 3.43-3.3 8.03-3.3 4.67 0 8.23 3.38 3.55 3.38 3.55 8.15 0 4.59-3.39 7.97-3.38 3.39-8.06 3.39-4.76 0-8.27-3.47t-3.51-8.23m1.25 50.38V90.19q0-3.43 3.43-3.43h12.86q3.43 0 3.43 3.43 0 17.21.08 34.46.09 17.26.09 34.47 0 3.43-3.43 3.43h-13.2q-3.43 0-3.43-3.43 0-12.62.09-25.23.08-12.62.08-25.24m60.99 55.48q-11.37 0-19.14-5.34-7.77-5.35-11.78-14.29t-4.01-19.55q0-11.53 4.3-20.6 4.31-9.06 12.58-14.33 8.27-5.26 20.3-5.26 13.29 0 23.15 7.68.75.59 1.17.59.5 0 .58-.59.08-.58.08-.83 0-7.85.05-15.63.04-7.77.12-15.62.09-3.68 0-7.48-.08-3.8.17-7.39.25-3.43 3.42-3.43h13.04q3.42 0 3.42 3.51 0 4.6-.12 9.15-.13 4.55-.21 9.15-.25 19.13-.25 38.43 0 19.22.25 38.44.08 4.59.21 9.15.12 4.55.12 9.15 0 3.51-3.42 3.51h-13.2q-3.09 0-3.22-2.34-.12-2.34-.21-4.52 0-.25-.08-.79-.09-.54-.5-.54-.42 0-1.17.58-5.6 4.43-12.03 6.81-6.44 2.38-13.62 2.38m6.1-18.46q7.35 0 12.95-3.34 5.59-3.35 8.18-10.45-.08-2.92-.08-5.76v-5.69q0-1.33.08-2.92.09-1.59-.08-2.84-.08-.92-.92-2.42-.83-1.51-1.25-2.26-3.09-4.68-8.23-6.98-5.14-2.29-10.65-2.29-6.35 0-11.08 3.17-4.72 3.18-7.26 8.36-2.55 5.18-2.55 11.28 0 5.76 2.71 10.82 2.72 5.05 7.48 8.18 4.76 3.14 10.7 3.14"/><rect width="434.703" height="200.01" x="402.164" y="-403.825" fill="none" rx="0" ry="0" transform="translate(477.6 403.82)"/><path fill="#ff851b" d="m810.184 60.67-13.128 13.128-13.128-13.128-23.672 23.672 13.128 13.128-13.128 13.128 23.672 23.672 13.128-13.128 13.128 13.128 23.672-23.672-13.128-13.128 13.128-13.128Z"/></g><path fill="transparent" stroke="transparent" d="M716.423 0h572v200h-572z"/></g></svg>